# xmcd CD database file
#
# Track frame offsets:
#	183
#	18620
#	41558
#	70208
#	85940
#	106645
#	126833
#	143990
#	161083
#	166508
#
# Disc length: 2681 seconds
#
# Revision: 0
# Processed by: cddbd v1.4PL0 Copyright (c) Steve Scherf et al.
# Submitted via: CdAid 2001.05.15.01
#
DISCID=7c0a770a
DTITLE=Eric Clapton - Unplugged
DYEAR=1900
DGENRE=
TTITLE0=Before you accuse me
TTITLE1=Lonely Stranger
TTITLE2=Running on Faith
TTITLE3=Nobody knows you (whne you are down and out)
TTITLE4=Layla
TTITLE5=Tears in Heaven
TTITLE6=Circus left Town
TTITLE7=Alberta
TTITLE8=Rollin'and Tumblin
TTITLE9=Old Love
EXTD=
EXTT0=
EXTT1=
EXTT2=
EXTT3=
EXTT4=
EXTT5=
EXTT6=
EXTT7=
EXTT8=
EXTT9=
PLAYORDER=
